<?xml version="1.0" standalone="no"?>
<!DOCTYPE svg PUBLIC "-//W3C//DTD SVG 20010904//EN"
 "http://www.w3.org/TR/2001/REC-SVG-20010904/DTD/svg10.dtd">
<svg  version="1.0" xmlns="http://www.w3.org/2000/svg"
 width="34px" height="34px" viewBox="0 0 1076.000000 1228.000000"
 preserveAspectRatio="xMidYMid meet">
<metadata>
Created by potrace 1.16, written by Peter Selinger 2001-2019
</metadata>
<g transform="translate(0.000000,1228.000000) scale(0.100000,-0.100000)"
fill="#ff6b08" stroke="none">
<path d="M5115 12220 c-239 -23 -657 -156 -939 -297 -271 -136 -483 -290 -687
-499 -319 -329 -524 -739 -605 -1212 -63 -374 -53 -731 33 -1172 l26 -136 -38
-52 c-59 -83 -89 -179 -89 -292 0 -88 8 -127 107 -522 115 -463 133 -512 215
-601 54 -58 148 -122 204 -139 21 -6 38 -12 38 -14 0 -33 51 -248 81 -338 68
-208 212 -474 340 -627 l39 -47 -2 -298 -3 -297 -665 -339 c-366 -186 -1032
-521 -1480 -744 l-815 -405 -61 -87 c-362 -512 -624 -1364 -718 -2332 -36
-369 -41 -493 -41 -1010 0 -289 4 -578 9 -642 l8 -118 5302 0 5303 0 6 113 c4
61 7 272 7 467 0 1619 -268 2871 -756 3529 l-59 79 -808 403 -809 404 6 30 c3
17 12 62 21 100 23 101 31 281 15 356 -16 76 -118 284 -195 399 -154 230 -368
440 -620 607 -96 64 -295 176 -333 188 -13 4 -21 12 -18 18 79 181 140 373
167 530 7 41 16 67 24 67 34 0 160 76 213 129 98 99 109 128 232 620 89 359
110 456 110 515 0 132 -49 261 -138 357 l-49 53 28 65 c40 95 85 259 110 397
29 160 32 484 5 652 -54 346 -183 699 -371 1017 -119 200 -195 297 -339 427
-423 384 -905 610 -1451 683 -145 19 -436 27 -560 15z m550 -415 c302 -46 594
-152 839 -303 245 -151 440 -328 558 -506 280 -423 434 -941 399 -1346 -10
-124 -39 -290 -50 -290 -3 0 -21 62 -39 138 -49 199 -153 506 -221 647 -81
170 -204 355 -235 355 -6 0 -71 -60 -145 -134 l-133 -133 47 -64 c105 -141
218 -426 303 -764 33 -129 112 -504 112 -530 0 -4 -80 70 -177 163 -464 443
-898 789 -1473 1172 -289 193 -709 447 -893 542 l-39 19 -116 -46 c-417 -165
-731 -456 -985 -911 l-57 -102 0 -321 0 -321 -24 0 c-22 0 -25 6 -40 88 -39
214 -50 328 -50 557 -1 138 4 268 12 325 84 607 363 1064 847 1389 259 174
703 349 990 391 92 13 444 4 570 -15z m-788 -1696 c486 -301 1000 -676 1403
-1023 183 -157 458 -416 564 -530 l97 -105 -4 -548 c-3 -523 -5 -553 -26 -648
-32 -145 -74 -265 -136 -390 -324 -657 -1053 -1010 -1766 -855 -564 123 -1036
564 -1193 1117 -62 216 -59 157 -63 1368 l-4 1111 56 89 c167 267 364 459 609
598 l79 45 121 -71 c67 -38 185 -110 263 -158z m-1518 -2004 l0 -180 -79 317
c-86 342 -86 344 -37 396 l22 23 47 -188 47 -188 0 -180z m4067 185 c-25 -96
-54 -209 -65 -250 l-19 -75 -1 252 -1 252 63 72 62 72 3 -74 c3 -62 -4 -103
-42 -249z m-171 -2125 c132 -89 223 -165 340 -286 160 -166 259 -311 305 -446
23 -69 24 -76 12 -165 -23 -180 -69 -312 -147 -418 -44 -60 -90 -101 -212
-191 -175 -129 -284 -248 -349 -382 -16 -31 -33 -56 -39 -54 -21 7 -132 185
-158 253 -58 150 -72 325 -42 509 21 126 19 300 -4 405 -11 47 -42 155 -69
240 -70 214 -85 304 -80 466 l3 131 54 61 53 62 118 -61 c66 -33 162 -89 215
-124z m-2953 -286 c98 -63 291 -154 423 -197 526 -175 1121 -117 1596 153
l109 63 0 -30 c0 -56 40 -225 81 -344 85 -245 92 -301 61 -521 l-17 -121 -590
-662 -590 -662 -35 39 c-19 22 -357 401 -750 842 -393 441 -716 806 -717 809
-1 4 77 48 175 98 l177 91 3 242 c1 132 4 241 7 241 2 0 33 -18 67 -41z m185
-1921 c483 -542 883 -987 888 -987 6 0 289 314 630 698 549 618 621 696 629
677 5 -12 29 -62 54 -112 l45 -92 -679 -844 -678 -845 -66 81 c-56 68 -1925
2398 -1952 2433 -7 9 13 23 69 52 l78 40 52 -57 c29 -31 448 -501 930 -1044z
m-297 -662 c646 -806 1180 -1465 1185 -1465 7 0 1514 1867 1603 1986 11 16 14
15 40 -5 89 -71 225 -153 403 -242 110 -56 203 -99 205 -97 3 2 -25 103 -61
224 -36 121 -65 233 -65 249 1 62 85 217 157 286 15 16 64 52 108 80 94 62
212 172 275 257 25 33 48 60 53 61 4 0 299 -146 657 -325 l649 -325 -44 -99
c-24 -54 -301 -684 -614 -1400 l-571 -1301 0 -400 0 -400 -2795 0 -2795 0 0
401 0 401 -606 1382 c-334 759 -611 1389 -616 1398 -7 15 95 70 809 427 783
392 819 408 833 390 8 -10 544 -678 1190 -1483z m-2581 -883 l571 -1301 0
-366 0 -366 -867 0 -866 0 6 388 c18 1135 175 2081 447 2692 50 112 129 264
135 258 1 -2 260 -589 574 -1305z m8175 1188 c322 -626 516 -1740 516 -2963
l0 -258 -865 0 -865 0 0 365 0 365 572 1305 c489 1115 575 1303 585 1288 7 -9
33 -55 57 -102z"/>
</g>
</svg>
