<?xml version="1.0" standalone="no"?>
<!DOCTYPE svg PUBLIC "-//W3C//DTD SVG 20010904//EN"
 "http://www.w3.org/TR/2001/REC-SVG-20010904/DTD/svg10.dtd">
<svg version="1.0" xmlns="http://www.w3.org/2000/svg"
 viewBox="0 0 1189.000000 1220.000000"
 preserveAspectRatio="xMidYMid meet">
<metadata>
Created by potrace 1.16, written by Peter Selinger 2001-2019
</metadata>
<g transform="translate(0.000000,1220.000000) scale(0.100000,-0.100000)"
fill="#ff6b08" stroke="none">
<path d="M5084 12135 c-244 -53 -435 -225 -521 -470 l-28 -80 -5 -1293 -5
-1294 -2200 -923 c-1376 -577 -2212 -933 -2232 -950 -57 -47 -68 -141 -23
-198 11 -14 151 -103 310 -198 l290 -173 0 -1787 0 -1786 -43 -13 c-163 -48
-307 -170 -385 -325 -60 -120 -65 -148 -70 -418 -4 -270 -2 -284 49 -333 l30
-29 569 0 568 0 27 25 c53 49 55 62 55 305 0 236 -10 316 -51 412 -69 162
-214 297 -381 355 l-68 23 0 1692 c0 931 2 1693 4 1693 3 0 98 -56 213 -125
l208 -125 5 -883 5 -882 33 -68 c212 -429 1321 -729 2894 -783 l198 -7 2
-1461 3 -1461 28 -80 c79 -223 229 -373 452 -452 l80 -28 3060 -3 c2199 -2
3078 0 3125 8 213 37 410 186 504 382 24 51 50 118 58 148 11 46 13 976 13
5540 l0 5485 -26 77 c-42 122 -93 204 -184 294 -66 66 -100 90 -176 128 -167
82 128 76 -3279 75 -2499 0 -3056 -3 -3106 -14z m6238 -322 c88 -41 160 -113
201 -201 l32 -67 3 -532 3 -533 -3366 0 -3366 0 3 538 3 537 27 55 c52 105
137 183 241 221 50 18 148 18 3102 16 l3050 -2 67 -32z m238 -5733 l0 -4110
-3365 0 -3365 0 0 763 0 763 268 12 c1004 45 1873 197 2361 412 259 114 416
246 479 404 15 37 18 131 22 920 l5 880 639 382 c351 210 652 396 669 412 52
53 48 165 -8 212 -9 7 -1009 430 -2223 940 l-2207 926 -3 597 -2 597 3365 0
3365 0 0 -4110z m-4825 1795 c1122 -471 2053 -862 2070 -869 29 -12 23 -16
-480 -318 l-510 -306 -48 44 c-167 150 -530 299 -972 398 -802 179 -1980 250
-2950 176 -1098 -84 -1855 -270 -2219 -544 -48 -36 -90 -66 -92 -66 -3 0 -233
136 -510 301 l-505 302 853 358 c469 197 1404 589 2078 873 674 283 1230 513
1235 511 6 -2 928 -389 2050 -860z m-1390 -1169 c1201 -93 1984 -261 2230
-478 90 -80 85 -35 85 -728 0 -335 -1 -610 -3 -610 -2 0 -50 24 -108 54 -316
165 -751 282 -1355 365 -1059 146 -2270 131 -3289 -40 -509 -85 -937 -220
-1183 -371 l-33 -20 3 603 c3 700 -4 648 105 728 324 240 1110 428 2073 496
118 8 242 17 275 19 164 10 1004 -3 1200 -18z m185 -1620 c723 -59 1300 -168
1695 -321 272 -105 435 -221 435 -309 0 -160 -461 -367 -1100 -496 -467 -94
-956 -144 -1565 -159 -1067 -28 -2062 79 -2714 291 -380 123 -612 275 -586
381 10 37 61 93 123 136 348 236 1170 425 2092 481 96 6 200 12 230 14 30 2
312 2 625 1 411 -2 625 -8 765 -19z m-4583 -2408 c80 -29 172 -121 201 -201
19 -49 22 -79 22 -192 l0 -135 -351 0 -351 0 4 148 c3 137 5 151 31 204 35 71
119 150 190 177 73 28 178 28 254 -1z m10611 -1531 l-3 -532 -34 -70 c-44 -89
-113 -157 -199 -198 l-67 -32 -3065 0 -3065 0 -60 29 c-78 38 -168 128 -203
203 l-27 58 -3 538 -3 537 3366 0 3366 0 -3 -533z"/>
<path d="M7640 11170 l0 -150 555 0 555 0 0 150 0 150 -555 0 -555 0 0 -150z"/>
<path d="M8070 1452 c-136 -36 -238 -120 -303 -250 l-42 -85 0 -126 c0 -125 0
-127 38 -205 128 -269 455 -355 707 -187 66 45 140 139 171 218 33 86 38 221
11 310 -51 167 -179 289 -344 328 -81 19 -157 18 -238 -3z m193 -296 c44 -18
94 -77 107 -126 14 -53 -1 -109 -43 -157 -145 -165 -401 27 -285 214 43 70
143 102 221 69z"/>
</g>
</svg>
