<?xml version="1.0" standalone="no"?>
<!DOCTYPE svg PUBLIC "-//W3C//DTD SVG 20010904//EN"
 "http://www.w3.org/TR/2001/REC-SVG-20010904/DTD/svg10.dtd">
<svg version="1.0" xmlns="http://www.w3.org/2000/svg"
 width="34px" height="34px" viewBox="0 0 1278.000000 1492.000000"
 preserveAspectRatio="xMidYMid meet">
<metadata>
Created by potrace 1.16, written by Peter Selinger 2001-2019
</metadata>
<g transform="translate(0.000000,1492.000000) scale(0.100000,-0.100000)"
fill="#ff6b08" stroke="none">
<path d="M6005 14913 c-439 -35 -699 -72 -1035 -149 -995 -228 -1889 -673
-2690 -1339 -199 -165 -620 -586 -784 -784 -640 -770 -1076 -1624 -1310 -2568
-116 -465 -173 -880 -183 -1343 l-6 -265 30 -32 c37 -40 91 -52 147 -32 68 24
79 50 87 208 32 608 301 1072 804 1388 91 57 298 152 420 192 238 78 455 111
725 111 380 0 692 -71 1010 -232 198 -100 315 -183 466 -333 225 -225 369
-486 438 -795 28 -131 46 -275 46 -382 0 -87 22 -131 75 -154 43 -18 77 -18
120 0 52 22 75 68 75 147 0 37 5 113 11 170 71 699 516 1231 1221 1464 771
253 1651 81 2186 -429 159 -151 298 -360 383 -573 66 -167 119 -445 119 -628
0 -84 22 -129 75 -151 43 -18 77 -18 120 0 53 23 75 67 75 154 0 107 18 251
46 381 161 723 756 1227 1594 1346 181 26 470 25 655 -4 721 -110 1266 -506
1494 -1086 75 -189 107 -345 120 -578 10 -165 18 -189 79 -214 42 -18 101 -13
138 12 l26 17 -5 391 c-4 357 -7 408 -31 577 -182 1264 -696 2387 -1530 3345
-123 141 -418 437 -566 567 -1075 950 -2373 1494 -3810 1598 -122 9 -736 11
-835 3z m547 -272 c808 -207 1521 -2047 1743 -4491 12 -137 45 -572 45 -604 0
-6 -27 30 -61 80 -84 123 -151 203 -266 316 -120 119 -196 181 -333 270 -256
168 -545 278 -887 340 -112 20 -161 23 -393 23 -232 0 -281 -3 -393 -23 -342
-62 -631 -172 -887 -340 -137 -89 -213 -151 -333 -270 -114 -112 -180 -191
-267 -317 l-62 -90 6 75 c3 41 11 143 16 225 160 2246 750 4111 1474 4656 199
151 399 201 598 150z m-930 -103 c-590 -604 -1057 -1913 -1292 -3613 -63 -463
-98 -834 -133 -1419 l-2 -40 -44 75 c-148 251 -398 508 -661 678 -274 177
-616 301 -955 347 -174 23 -477 23 -640 0 -411 -58 -765 -202 -1083 -440 -121
-91 -288 -254 -377 -368 -33 -43 -61 -73 -63 -68 -5 15 67 325 118 503 661
2326 2625 4050 5020 4406 69 10 140 19 159 20 l33 1 -80 -82z m1660 62 c1043
-149 2046 -577 2891 -1234 383 -299 775 -690 1070 -1069 518 -665 894 -1427
1102 -2232 48 -186 89 -374 83 -380 -2 -2 -30 31 -63 73 -139 177 -369 377
-576 501 -267 159 -588 266 -919 307 -182 22 -512 15 -685 -15 -508 -88 -925
-304 -1260 -652 -102 -105 -211 -247 -276 -358 l-44 -75 -2 40 c-35 586 -70
958 -134 1419 -235 1704 -701 3009 -1290 3613 -63 63 -76 82 -61 82 12 0 85
-9 164 -20z"/>
<path d="M6200 9181 c-247 -53 -451 -205 -554 -414 -55 -112 -75 -184 -83
-300 -3 -51 -11 -90 -17 -92 -6 -2 -72 -20 -146 -41 -516 -142 -995 -412
-1339 -754 -301 -299 -486 -631 -568 -1020 -25 -113 -27 -146 -27 -345 -1
-242 9 -317 66 -495 201 -629 811 -1127 1825 -1489 95 -33 177 -61 183 -61 7
0 10 -303 10 -916 0 -729 -3 -914 -12 -908 -47 27 -148 118 -196 175 -130 154
-179 276 -193 479 -14 204 -45 299 -136 428 -89 125 -266 239 -443 283 -121
30 -335 37 -453 15 -313 -59 -532 -233 -618 -491 -22 -65 -24 -86 -23 -270 0
-168 4 -217 23 -305 83 -387 277 -738 575 -1036 348 -348 843 -620 1379 -759
l107 -28 0 -61 c0 -34 7 -92 15 -131 65 -304 276 -521 593 -607 112 -31 353
-30 467 1 348 94 582 368 602 707 l6 91 56 13 c86 19 304 87 405 127 652 255
1165 678 1425 1173 96 184 146 328 188 535 26 130 26 502 0 630 -117 575 -516
1027 -1227 1389 -205 105 -378 178 -635 272 l-200 72 -3 917 -2 916 58 -44
c75 -58 184 -175 229 -244 79 -125 110 -226 123 -413 22 -301 148 -490 415
-616 122 -57 234 -84 381 -91 453 -21 794 205 870 577 13 67 16 114 11 225
-15 381 -137 719 -378 1048 -85 116 -304 341 -429 441 -193 154 -454 309 -711
422 -121 53 -390 145 -500 170 l-76 17 -6 91 c-8 119 -28 190 -85 306 -81 166
-250 313 -432 376 -161 56 -356 69 -520 35z m349 -256 c111 -27 188 -70 271
-154 127 -128 160 -222 160 -457 l0 -152 138 -32 c169 -39 447 -131 607 -199
556 -239 972 -596 1183 -1017 94 -187 145 -367 164 -581 13 -151 4 -231 -36
-318 -53 -116 -155 -201 -301 -251 -103 -35 -271 -44 -385 -20 -136 29 -267
104 -339 196 -61 77 -81 143 -92 301 -11 171 -35 267 -98 394 -118 237 -324
419 -679 598 -83 43 -153 77 -156 77 -4 0 -5 -552 -4 -1226 l3 -1227 200 -67
c339 -114 517 -186 750 -302 315 -157 513 -294 708 -486 220 -217 348 -441
409 -712 20 -90 23 -132 23 -290 -1 -204 -13 -291 -66 -465 -216 -705 -955
-1250 -2006 -1480 -23 -5 -23 -8 -23 -153 0 -96 -6 -169 -15 -211 -82 -347
-495 -523 -838 -357 -130 63 -223 165 -275 304 -22 59 -26 88 -31 241 l-6 174
-125 28 c-586 128 -1040 356 -1399 704 -289 280 -461 580 -537 935 -13 61 -18
130 -19 245 l0 160 32 68 c85 180 288 289 538 289 271 0 486 -128 555 -328 13
-37 23 -107 29 -198 7 -98 18 -168 36 -229 76 -262 253 -467 564 -655 104 -63
301 -162 321 -162 7 0 10 392 10 1223 l0 1222 -177 59 c-1072 354 -1666 794
-1857 1377 -145 444 -47 968 257 1375 208 278 497 505 882 694 261 128 544
227 818 285 l77 17 0 147 c0 171 14 243 66 342 67 127 213 237 361 273 78 19
223 19 302 1z"/>
<path d="M5668 7237 c-436 -224 -656 -449 -749 -768 -30 -106 -38 -334 -15
-449 51 -251 212 -453 501 -630 64 -40 397 -210 410 -210 3 0 5 477 5 1060 0
903 -2 1060 -14 1060 -8 0 -70 -28 -138 -63z m-118 -997 c0 -346 -3 -630 -6
-630 -4 0 -43 26 -87 58 -111 80 -200 179 -247 277 -52 108 -64 170 -58 296 8
163 64 297 186 445 48 59 187 183 205 184 4 0 7 -283 7 -630z"/>
<path d="M6980 2971 l0 -1071 24 9 c13 5 72 34 132 64 435 220 669 462 755
782 30 111 33 366 5 470 -78 294 -288 506 -713 722 -87 45 -168 84 -180 88
l-23 6 0 -1070z m338 600 c120 -81 221 -190 275 -296 82 -164 83 -367 2 -551
-51 -116 -169 -259 -287 -351 l-58 -44 0 640 c0 353 2 641 6 641 3 0 31 -17
62 -39z"/>
</g>
</svg>
