<?xml version="1.0" encoding="UTF-8"?>
<svg xmlns="http://www.w3.org/2000/svg" xmlns:xlink="http://www.w3.org/1999/xlink" viewBox="0 0 15 22" version="1.1">
<g id="surface1">
<path style=" stroke:none;fill-rule:nonzero;fill:#ff6b08;fill-opacity:1;" d="M 6.121094 0.0820312 C 5.003906 0.972656 4.5625 2.921875 4.894531 5.519531 C 4.949219 5.941406 5.042969 6.316406 5.230469 6.878906 C 5.464844 7.578125 5.511719 7.914062 5.488281 8.742188 C 5.472656 9.527344 5.425781 9.851562 5.191406 10.734375 C 4.992188 11.507812 4.945312 11.636719 4.828125 11.765625 C 4.714844 11.898438 4.605469 11.898438 4.464844 11.769531 C 4.3125 11.636719 4.285156 11.546875 4.25 11.066406 C 4.210938 10.585938 4.140625 10.253906 3.980469 9.855469 C 3.632812 8.976562 2.816406 8.128906 1.878906 7.660156 C 1.519531 7.480469 1.355469 7.46875 1.230469 7.609375 C 1.128906 7.710938 1.125 7.800781 1.214844 8.15625 C 1.269531 8.382812 1.238281 9.65625 1.160156 10.261719 C 1.082031 10.875 0.929688 11.617188 0.734375 12.339844 C 0.480469 13.277344 0.335938 14.125 0.25 15.117188 C 0.195312 15.753906 0.207031 16.804688 0.269531 17.195312 C 0.441406 18.25 0.867188 19.152344 1.535156 19.890625 C 2.519531 20.984375 3.867188 21.660156 5.585938 21.929688 C 6.195312 22.023438 7.8125 22.03125 8.453125 21.941406 C 9.679688 21.773438 10.734375 21.433594 11.839844 20.863281 C 13.417969 20.042969 14.265625 19.136719 14.714844 17.769531 C 14.925781 17.132812 14.972656 16.828125 14.988281 15.929688 C 15.015625 14.757812 14.894531 13.933594 14.519531 12.707031 C 14.15625 11.535156 13.894531 10.96875 13.382812 10.222656 C 12.917969 9.550781 12.675781 9 12.4375 8.097656 C 12.3125 7.644531 12.136719 6.730469 12.066406 6.21875 C 12.046875 6.042969 12.011719 5.867188 11.992188 5.828125 C 11.949219 5.738281 11.769531 5.660156 11.65625 5.683594 C 11.429688 5.726562 11.027344 6.425781 10.886719 7.035156 C 10.8125 7.332031 10.804688 7.472656 10.808594 8.058594 C 10.8125 8.828125 10.855469 9.128906 11.105469 10.011719 C 11.355469 10.882812 11.375 11.046875 11.371094 11.890625 C 11.371094 12.757812 11.328125 13 11.082031 13.523438 C 10.808594 14.113281 10.582031 14.246094 10.320312 13.96875 C 9.976562 13.59375 9.816406 12.296875 9.933594 10.695312 C 10.007812 9.640625 9.992188 9.136719 9.875 8.589844 C 9.605469 7.347656 9.046875 6.171875 8.117188 4.921875 C 7.941406 4.6875 7.738281 4.386719 7.664062 4.257812 C 7.191406 3.425781 6.835938 2.027344 6.71875 0.550781 C 6.683594 0.0820312 6.632812 0 6.394531 0 C 6.273438 0 6.191406 0.0234375 6.121094 0.0820312 Z M 2.636719 12.351562 C 2.730469 12.46875 2.730469 12.460938 2.636719 13.292969 C 2.5625 13.933594 2.550781 13.984375 2.460938 14.078125 C 2.3125 14.242188 2.082031 14.207031 1.984375 14 C 1.9375 13.902344 1.9375 13.824219 2.019531 13.160156 C 2.105469 12.429688 2.105469 12.421875 2.21875 12.316406 C 2.355469 12.183594 2.507812 12.195312 2.636719 12.351562 Z M 2.316406 15.125 L 2.417969 15.230469 L 2.402344 16.113281 C 2.394531 16.601562 2.375 17.03125 2.355469 17.070312 C 2.339844 17.105469 2.269531 17.160156 2.199219 17.183594 C 2.101562 17.21875 2.058594 17.214844 1.96875 17.164062 C 1.90625 17.132812 1.847656 17.078125 1.828125 17.039062 C 1.773438 16.9375 1.753906 16.257812 1.78125 15.707031 C 1.808594 15.21875 1.8125 15.199219 1.902344 15.113281 C 2.039062 14.988281 2.191406 14.992188 2.316406 15.125 Z M 2.316406 15.125 "/>
<path style=" stroke:none;fill-rule:nonzero;fill:#ff6b08;fill-opacity:1;" d="M 12.101562 2.984375 C 11.914062 3.195312 11.683594 3.824219 11.671875 4.160156 C 11.664062 4.292969 11.683594 4.34375 11.761719 4.425781 C 11.894531 4.570312 12.085938 4.566406 12.199219 4.421875 C 12.246094 4.367188 12.285156 4.285156 12.285156 4.25 C 12.285156 4.113281 12.464844 3.582031 12.554688 3.453125 C 12.734375 3.191406 12.617188 2.882812 12.328125 2.882812 C 12.226562 2.882812 12.167969 2.910156 12.101562 2.984375 Z M 12.101562 2.984375 "/>
<path style=" stroke:none;fill-rule:nonzero;fill:#ff6b08;fill-opacity:1;" d="M 0.152344 4.855469 C -0.0390625 4.9375 -0.0546875 5.226562 0.125 5.464844 C 0.191406 5.558594 0.300781 5.785156 0.359375 5.964844 C 0.480469 6.328125 0.582031 6.449219 0.75 6.449219 C 0.871094 6.449219 1.019531 6.328125 1.050781 6.207031 C 1.105469 5.980469 0.769531 5.179688 0.53125 4.949219 C 0.394531 4.816406 0.300781 4.792969 0.152344 4.855469 Z M 0.152344 4.855469 "/>
</g>
</svg>
