<svg xmlns="http://www.w3.org/2000/svg" width="26" height="32"><path fill="#ff6b08" d="M3.725.503a1.6 1.6 0 00-1.113.521L.536 3.307c.003-.007-.008-.006-.067.077a.5.5 0 00-.071.138l-.001.004c-.846 2.69-.279 5.651 1.101 8.466s3.58 5.51 6.106 7.721c2.526 2.212 5.377 3.941 8.096 4.799s5.353.847 7.305-.571a.445.445 0 00.061-.051c.05-.051.052-.058.044-.049l.008-.01 2.066-2.273a1.615 1.615 0 00-.105-2.271l-4.903-4.458a1.615 1.615 0 00-2.271.105l-2.218 2.439c-1.8-.522-3.339-1.405-4.819-2.751s-2.506-2.796-3.195-4.538l2.216-2.438a1.615 1.615 0 00-.104-2.272L4.883.916A1.598 1.598 0 003.805.5l-.084.002h.004zm.049 1.001h.023c.158 0 .302.061.409.161l4.899 4.456a.589.589 0 01.041.849L6.695 9.663a.502.502 0 00-.099.515l-.001-.003c.744 2.029 1.944 3.694 3.595 5.196s3.42 2.539 5.51 3.087a.5.5 0 00.501-.147l2.451-2.694a.59.59 0 01.848-.039l4.902 4.457c.252.23.269.596.039.848l-2.048 2.253c-1.602 1.151-3.861 1.215-6.389.416-2.538-.8-5.294-2.461-7.733-4.595s-4.561-4.741-5.866-7.403C1.114 8.918.646 6.254 1.356 3.906l2.001-2.199a.597.597 0 01.414-.201h.002z"/></svg>