<svg version="1.0" xmlns="http://www.w3.org/2000/svg" viewBox="0 0 1076 1228"><path d="M511.5 6c-23.9 2.3-65.7 15.6-93.9 29.7-27.1 13.6-48.3 29-68.7 49.9-31.9 32.9-52.4 73.9-60.5 121.2-6.3 37.4-5.3 73.1 3.3 117.2l2.6 13.6-3.8 5.2c-5.9 8.3-8.9 17.9-8.9 29.2 0 8.8.8 12.7 10.7 52.2 11.5 46.3 13.3 51.2 21.5 60.1 5.4 5.8 14.8 12.2 20.4 13.9 2.1.6 3.8 1.2 3.8 1.4 0 3.3 5.1 24.8 8.1 33.8 6.8 20.8 21.2 47.4 34 62.7l3.9 4.7-.2 29.8-.3 29.7-66.5 33.9c-36.6 18.6-103.2 52.1-148 74.4l-81.5 40.5-6.1 8.7C45.2 869 19 954.2 9.6 1051c-3.6 36.9-4.1 49.3-4.1 101 0 28.9.4 57.8.9 64.2l.8 11.8h1060.5l.6-11.3c.4-6.1.7-27.2.7-46.7 0-161.9-26.8-287.1-75.6-352.9l-5.9-7.9-80.8-40.3-80.9-40.4.6-3c.3-1.7 1.2-6.2 2.1-10 2.3-10.1 3.1-28.1 1.5-35.6-1.6-7.6-11.8-28.4-19.5-39.9-15.4-23-36.8-44-62-60.7-9.6-6.4-29.5-17.6-33.3-18.8-1.3-.4-2.1-1.2-1.8-1.8 7.9-18.1 14-37.3 16.7-53 .7-4.1 1.6-6.7 2.4-6.7 3.4 0 16-7.6 21.3-12.9 9.8-9.9 10.9-12.8 23.2-62 8.9-35.9 11-45.6 11-51.5 0-13.2-4.9-26.1-13.8-35.7l-4.9-5.3 2.8-6.5c4-9.5 8.5-25.9 11-39.7 2.9-16 3.2-48.4.5-65.2-5.4-34.6-18.3-69.9-37.1-101.7-11.9-20-19.5-29.7-33.9-42.7-42.3-38.4-90.5-61-145.1-68.3-14.5-1.9-43.6-2.7-56-1.5zm55 41.5c30.2 4.6 59.4 15.2 83.9 30.3 24.5 15.1 44 32.8 55.8 50.6 28 42.3 43.4 94.1 39.9 134.6-1 12.4-3.9 29-5 29-.3 0-2.1-6.2-3.9-13.8-4.9-19.9-15.3-50.6-22.1-64.7-8.1-17-20.4-35.5-23.5-35.5-.6 0-7.1 6-14.5 13.4l-13.3 13.3 4.7 6.4c10.5 14.1 21.8 42.6 30.3 76.4 3.3 12.9 11.2 50.4 11.2 53 0 .4-8-7-17.7-16.3-46.4-44.3-89.8-78.9-147.3-117.2-28.9-19.3-70.9-44.7-89.3-54.2l-3.9-1.9-11.6 4.6c-41.7 16.5-73.1 45.6-98.5 91.1l-5.7 10.2V321h-2.4c-2.2 0-2.5-.6-4-8.8-3.9-21.4-5-32.8-5-55.7-.1-13.8.4-26.8 1.2-32.5 8.4-60.7 36.3-106.4 84.7-138.9 25.9-17.4 70.3-34.9 99-39.1 9.2-1.3 44.4-.4 57 1.5zm-78.8 169.6c48.6 30.1 100 67.6 140.3 102.3 18.3 15.7 45.8 41.6 56.4 53l9.7 10.5-.4 54.8c-.3 52.3-.5 55.3-2.6 64.8-3.2 14.5-7.4 26.5-13.6 39-32.4 65.7-105.3 101-176.6 85.5-56.4-12.3-103.6-56.4-119.3-111.7-6.2-21.6-5.9-15.7-6.3-136.8l-.4-111.1 5.6-8.9c16.7-26.7 36.4-45.9 60.9-59.8l7.9-4.5 12.1 7.1c6.7 3.8 18.5 11 26.3 15.8zM335.9 417.5v18l-7.9-31.7c-8.6-34.2-8.6-34.4-3.7-39.6l2.2-2.3 4.7 18.8 4.7 18.8v18zM742.6 399c-2.5 9.6-5.4 20.9-6.5 25l-1.9 7.5-.1-25.2-.1-25.2 6.3-7.2 6.2-7.2.3 7.4c.3 6.2-.4 10.3-4.2 24.9zm-17.1 212.5c13.2 8.9 22.3 16.5 34 28.6 16 16.6 25.9 31.1 30.5 44.6 2.3 6.9 2.4 7.6 1.2 16.5-2.3 18-6.9 31.2-14.7 41.8-4.4 6-9 10.1-21.2 19.1-17.5 12.9-28.4 24.8-34.9 38.2-1.6 3.1-3.3 5.6-3.9 5.4-2.1-.7-13.2-18.5-15.8-25.3-5.8-15-7.2-32.5-4.2-50.9 2.1-12.6 1.9-30-.4-40.5-1.1-4.7-4.2-15.5-6.9-24-7-21.4-8.5-30.4-8-46.6l.3-13.1 5.4-6.1 5.3-6.2 11.8 6.1c6.6 3.3 16.2 8.9 21.5 12.4zm-295.3 28.6c9.8 6.3 29.1 15.4 42.3 19.7 52.6 17.5 112.1 11.7 159.6-15.3l10.9-6.3v3c0 5.6 4 22.5 8.1 34.4 8.5 24.5 9.2 30.1 6.1 52.1l-1.7 12.1-59 66.2-59 66.2-3.5-3.9c-1.9-2.2-35.7-40.1-75-84.2s-71.6-80.6-71.7-80.9c-.1-.4 7.7-4.8 17.5-9.8l17.7-9.1.3-24.2c.1-13.2.4-24.1.7-24.1.2 0 3.3 1.8 6.7 4.1zm18.5 192.1c48.3 54.2 88.3 98.7 88.8 98.7.6 0 28.9-31.4 63-69.8 54.9-61.8 62.1-69.6 62.9-67.7.5 1.2 2.9 6.2 5.4 11.2l4.5 9.2-67.9 84.4-67.8 84.5-6.6-8.1c-5.6-6.8-192.5-239.8-195.2-243.3-.7-.9 1.3-2.3 6.9-5.2l7.8-4 5.2 5.7c2.9 3.1 44.8 50.1 93 104.4zM419 898.4c64.6 80.6 118 146.5 118.5 146.5.7 0 151.4-186.7 160.3-198.6 1.1-1.6 1.4-1.5 4 .5 8.9 7.1 22.5 15.3 40.3 24.2 11 5.6 20.3 9.9 20.5 9.7.3-.2-2.5-10.3-6.1-22.4-3.6-12.1-6.5-23.3-6.5-24.9.1-6.2 8.5-21.7 15.7-28.6 1.5-1.6 6.4-5.2 10.8-8 9.4-6.2 21.2-17.2 27.5-25.7 2.5-3.3 4.8-6 5.3-6.1.4 0 29.9 14.6 65.7 32.5l64.9 32.5-4.4 9.9c-2.4 5.4-30.1 68.4-61.4 140L817 1110v80H258v-80.2l-60.6-138.2c-33.4-75.9-61.1-138.9-61.6-139.8-.7-1.5 9.5-7 80.9-42.7 78.3-39.2 81.9-40.8 83.3-39 .8 1 54.4 67.8 119 148.3zm-258.1 88.3l57.1 130.1v73.2H44.7l.6-38.8C47.1 1037.7 62.8 943.1 90 882c5-11.2 12.9-26.4 13.5-25.8.1.2 26 58.9 57.4 130.5zm817.5-118.8c32.2 62.6 51.6 174 51.6 296.3v25.8H857v-73l57.2-130.5c48.9-111.5 57.5-130.3 58.5-128.8.7.9 3.3 5.5 5.7 10.2z" fill="#ff6b08"/></svg>