<svg version="1.0" xmlns="http://www.w3.org/2000/svg" viewBox="0 0 1189 1220"><g fill="#ff6b08"><path d="M508.4 6.5c-24.4 5.3-43.5 22.5-52.1 47l-2.8 8-.5 129.3-.5 129.4-220 92.3c-137.6 57.7-221.2 93.3-223.2 95-5.7 4.7-6.8 14.1-2.3 19.8 1.1 1.4 15.1 10.3 31 19.8l29 17.3v357.3l-4.3 1.3c-16.3 4.8-30.7 17-38.5 32.5-6 12-6.5 14.8-7 41.8-.4 27-.2 28.4 4.9 33.3l3 2.9h113.7l2.7-2.5c5.3-4.9 5.5-6.2 5.5-30.5 0-23.6-1-31.6-5.1-41.2-6.9-16.2-21.4-29.7-38.1-35.5l-6.8-2.3V752.3c0-93.1.2-169.3.4-169.3.3 0 9.8 5.6 21.3 12.5l20.8 12.5.5 88.3.5 88.2 3.3 6.8c21.2 42.9 132.1 72.9 289.4 78.3l19.8.7.2 146.1.3 146.1 2.8 8c7.9 22.3 22.9 37.3 45.2 45.2l8 2.8 306 .3c219.9.2 307.8 0 312.5-.8 21.3-3.7 41-18.6 50.4-38.2 2.4-5.1 5-11.8 5.8-14.8 1.1-4.6 1.3-97.6 1.3-554V62.5l-2.6-7.7c-4.2-12.2-9.3-20.4-18.4-29.4-6.6-6.6-10-9-17.6-12.8-16.7-8.2 12.8-7.6-327.9-7.5-249.9 0-305.6.3-310.6 1.4zm623.8 32.2c8.8 4.1 16 11.3 20.1 20.1l3.2 6.7.3 53.2.3 53.3H482.9l.3-53.8.3-53.7 2.7-5.5c5.2-10.5 13.7-18.3 24.1-22.1 5-1.8 14.8-1.8 310.2-1.6l305 .2 6.7 3.2zM1156 612v411H483V870.4l26.8-1.2c100.4-4.5 187.3-19.7 236.1-41.2 25.9-11.4 41.6-24.6 47.9-40.4 1.5-3.7 1.8-13.1 2.2-92l.5-88 63.9-38.2c35.1-21 65.2-39.6 66.9-41.2 5.2-5.3 4.8-16.5-.8-21.2-.9-.7-100.9-43-222.3-94l-220.7-92.6-.3-59.7-.2-59.7h673v411zM673.5 432.5c112.2 47.1 205.3 86.2 207 86.9 2.9 1.2 2.3 1.6-48 31.8l-51 30.6-4.8-4.4c-16.7-15-53-29.9-97.2-39.8-80.2-17.9-198-25-295-17.6-109.8 8.4-185.5 27-221.9 54.4-4.8 3.6-9 6.6-9.2 6.6-.3 0-23.3-13.6-51-30.1l-50.5-30.2 85.3-35.8c46.9-19.7 140.4-58.9 207.8-87.3 67.4-28.3 123-51.3 123.5-51.1.6.2 92.8 38.9 205 86zm-139 116.9c120.1 9.3 198.4 26.1 223 47.8 9 8 8.5 3.5 8.5 72.8 0 33.5-.1 61-.3 61-.2 0-5-2.4-10.8-5.4-31.6-16.5-75.1-28.2-135.5-36.5-105.9-14.6-227-13.1-328.9 4-50.9 8.5-93.7 22-118.3 37.1l-3.3 2 .3-60.3c.3-70-.4-64.8 10.5-72.8 32.4-24 111-42.8 207.3-49.6 11.8-.8 24.2-1.7 27.5-1.9 16.4-1 100.4.3 120 1.8zm18.5 162c72.3 5.9 130 16.8 169.5 32.1 27.2 10.5 43.5 22.1 43.5 30.9 0 16-46.1 36.7-110 49.6-46.7 9.4-95.6 14.4-156.5 15.9-106.7 2.8-206.2-7.9-271.4-29.1-38-12.3-61.2-27.5-58.6-38.1 1-3.7 6.1-9.3 12.3-13.6 34.8-23.6 117-42.5 209.2-48.1 9.6-.6 20-1.2 23-1.4 3-.2 31.2-.2 62.5-.1 41.1.2 62.5.8 76.5 1.9zM94.7 952.2c8 2.9 17.2 12.1 20.1 20.1 1.9 4.9 2.2 7.9 2.2 19.2v13.5H46.8l.4-14.8c.3-13.7.5-15.1 3.1-20.4 3.5-7.1 11.9-15 19-17.7 7.3-2.8 17.8-2.8 25.4.1zm1061.1 153.1l-.3 53.2-3.4 7c-4.4 8.9-11.3 15.7-19.9 19.8l-6.7 3.2h-613l-6-2.9c-7.8-3.8-16.8-12.8-20.3-20.3l-2.7-5.8-.3-53.8-.3-53.7h673.2l-.3 53.3z"/><path d="M764 103v15h111V88H764v15zm43 971.8c-13.6 3.6-23.8 12-30.3 25l-4.2 8.5v12.6c0 12.5 0 12.7 3.8 20.5 12.8 26.9 45.5 35.5 70.7 18.7 6.6-4.5 14-13.9 17.1-21.8 3.3-8.6 3.8-22.1 1.1-31-5.1-16.7-17.9-28.9-34.4-32.8-8.1-1.9-15.7-1.8-23.8.3zm19.3 29.6c4.4 1.8 9.4 7.7 10.7 12.6 1.4 5.3-.1 10.9-4.3 15.7-14.5 16.5-40.1-2.7-28.5-21.4 4.3-7 14.3-10.2 22.1-6.9z"/></g></svg>