<svg version="1.0" xmlns="http://www.w3.org/2000/svg" viewBox="0 0 1278 1492"><g fill="#ff6b08"><path d="M600.5.7C556.6 4.2 530.6 7.9 497 15.6c-99.5 22.8-188.9 67.3-269 133.9-19.9 16.5-62 58.6-78.4 78.4-64 77-107.6 162.4-131 256.8C7 531.2 1.3 572.7.3 619l-.6 26.5 3 3.2c3.7 4 9.1 5.2 14.7 3.2 6.8-2.4 7.9-5 8.7-20.8 3.2-60.8 30.1-107.2 80.4-138.8 9.1-5.7 29.8-15.2 42-19.2C172.3 465.3 194 462 221 462c38 0 69.2 7.1 101 23.2 19.8 10 31.5 18.3 46.6 33.3 22.5 22.5 36.9 48.6 43.8 79.5 2.8 13.1 4.6 27.5 4.6 38.2 0 8.7 2.2 13.1 7.5 15.4 4.3 1.8 7.7 1.8 12 0 5.2-2.2 7.5-6.8 7.5-14.7 0-3.7.5-11.3 1.1-17 7.1-69.9 51.6-123.1 122.1-146.4 77.1-25.3 165.1-8.1 218.6 42.9 15.9 15.1 29.8 36 38.3 57.3 6.6 16.7 11.9 44.5 11.9 62.8 0 8.4 2.2 12.9 7.5 15.1 4.3 1.8 7.7 1.8 12 0 5.3-2.3 7.5-6.7 7.5-15.4 0-10.7 1.8-25.1 4.6-38.1 16.1-72.3 75.6-122.7 159.4-134.6 18.1-2.6 47-2.5 65.5.4 72.1 11 126.6 50.6 149.4 108.6 7.5 18.9 10.7 34.5 12 57.8 1 16.5 1.8 18.9 7.9 21.4 4.2 1.8 10.1 1.3 13.8-1.2l2.6-1.7-.5-39.1c-.4-35.7-.7-40.8-3.1-57.7-18.2-126.4-69.6-238.7-153-334.5-12.3-14.1-41.8-43.7-56.6-56.7C957.5 65.8 827.7 11.4 684 1 671.8.1 610.4-.1 600.5.7zm54.7 27.2C736 48.6 807.3 232.6 829.5 477c1.2 13.7 4.5 57.2 4.5 60.4 0 .6-2.7-3-6.1-8-8.4-12.3-15.1-20.3-26.6-31.6-12-11.9-19.6-18.1-33.3-27-25.6-16.8-54.5-27.8-88.7-34-11.2-2-16.1-2.3-39.3-2.3-23.2 0-28.1.3-39.3 2.3-34.2 6.2-63.1 17.2-88.7 34-13.7 8.9-21.3 15.1-33.3 27-11.4 11.2-18 19.1-26.7 31.7l-6.2 9 .6-7.5c.3-4.1 1.1-14.3 1.6-22.5 16-224.6 75-411.1 147.4-465.6 19.9-15.1 39.9-20.1 59.8-15zm-93 10.3c-59 60.4-105.7 191.3-129.2 361.3-6.3 46.3-9.8 83.4-13.3 141.9l-.2 4-4.4-7.5c-14.8-25.1-39.8-50.8-66.1-67.8-27.4-17.7-61.6-30.1-95.5-34.7-17.4-2.3-47.7-2.3-64 0-41.1 5.8-76.5 20.2-108.3 44-12.1 9.1-28.8 25.4-37.7 36.8-3.3 4.3-6.1 7.3-6.3 6.8-.5-1.5 6.7-32.5 11.8-50.3 66.1-232.6 262.5-405 502-440.6 6.9-1 14-1.9 15.9-2l3.3-.1-8 8.2zm166-6.2c104.3 14.9 204.6 57.7 289.1 123.4 38.3 29.9 77.5 69 107 106.9 51.8 66.5 89.4 142.7 110.2 223.2 4.8 18.6 8.9 37.4 8.3 38-.2.2-3-3.1-6.3-7.3-13.9-17.7-36.9-37.7-57.6-50.1-26.7-15.9-58.8-26.6-91.9-30.7-18.2-2.2-51.2-1.5-68.5 1.5-50.8 8.8-92.5 30.4-126 65.2-10.2 10.5-21.1 24.7-27.6 35.8l-4.4 7.5-.2-4c-3.5-58.6-7-95.8-13.4-141.9-23.5-170.4-70.1-300.9-129-361.3-6.3-6.3-7.6-8.2-6.1-8.2 1.2 0 8.5.9 16.4 2z"/><path d="M620 573.9c-24.7 5.3-45.1 20.5-55.4 41.4-5.5 11.2-7.5 18.4-8.3 30-.3 5.1-1.1 9-1.7 9.2-.6.2-7.2 2-14.6 4.1-51.6 14.2-99.5 41.2-133.9 75.4-30.1 29.9-48.6 63.1-56.8 102-2.5 11.3-2.7 14.6-2.7 34.5-.1 24.2.9 31.7 6.6 49.5 20.1 62.9 81.1 112.7 182.5 148.9 9.5 3.3 17.7 6.1 18.3 6.1.7 0 1 30.3 1 91.6 0 72.9-.3 91.4-1.2 90.8-4.7-2.7-14.8-11.8-19.6-17.5-13-15.4-17.9-27.6-19.3-47.9-1.4-20.4-4.5-29.9-13.6-42.8-8.9-12.5-26.6-23.9-44.3-28.3-12.1-3-33.5-3.7-45.3-1.5-31.3 5.9-53.2 23.3-61.8 49.1-2.2 6.5-2.4 8.6-2.3 27 0 16.8.4 21.7 2.3 30.5 8.3 38.7 27.7 73.8 57.5 103.6 34.8 34.8 84.3 62 137.9 75.9l10.7 2.8v6.1c0 3.4.7 9.2 1.5 13.1 6.5 30.4 27.6 52.1 59.3 60.7 11.2 3.1 35.3 3 46.7-.1 34.8-9.4 58.2-36.8 60.2-70.7l.6-9.1 5.6-1.3c8.6-1.9 30.4-8.7 40.5-12.7 65.2-25.5 116.5-67.8 142.5-117.3 9.6-18.4 14.6-32.8 18.8-53.5 2.6-13 2.6-50.2 0-63-11.7-57.5-51.6-102.7-122.7-138.9-20.5-10.5-37.8-17.8-63.5-27.2l-20-7.2-.3-91.7-.2-91.6 5.8 4.4c7.5 5.8 18.4 17.5 22.9 24.4 7.9 12.5 11 22.6 12.3 41.3 2.2 30.1 14.8 49 41.5 61.6 12.2 5.7 23.4 8.4 38.1 9.1 45.3 2.1 79.4-20.5 87-57.7 1.3-6.7 1.6-11.4 1.1-22.5-1.5-38.1-13.7-71.9-37.8-104.8-8.5-11.6-30.4-34.1-42.9-44.1-19.3-15.4-45.4-30.9-71.1-42.2-12.1-5.3-39-14.5-50-17l-7.6-1.7-.6-9.1c-.8-11.9-2.8-19-8.5-30.6-8.1-16.6-25-31.3-43.2-37.6-16.1-5.6-35.6-6.9-52-3.5zm34.9 25.6c11.1 2.7 18.8 7 27.1 15.4 12.7 12.8 16 22.2 16 45.7v15.2l13.8 3.2c16.9 3.9 44.7 13.1 60.7 19.9 55.6 23.9 97.2 59.6 118.3 101.7 9.4 18.7 14.5 36.7 16.4 58.1 1.3 15.1.4 23.1-3.6 31.8-5.3 11.6-15.5 20.1-30.1 25.1-10.3 3.5-27.1 4.4-38.5 2-13.6-2.9-26.7-10.4-33.9-19.6-6.1-7.7-8.1-14.3-9.2-30.1-1.1-17.1-3.5-26.7-9.8-39.4-11.8-23.7-32.4-41.9-67.9-59.8-8.3-4.3-15.3-7.7-15.6-7.7-.4 0-.5 55.2-.4 122.6l.3 122.7 20 6.7c33.9 11.4 51.7 18.6 75 30.2 31.5 15.7 51.3 29.4 70.8 48.6 22 21.7 34.8 44.1 40.9 71.2 2 9 2.3 13.2 2.3 29-.1 20.4-1.3 29.1-6.6 46.5-21.6 70.5-95.5 125-200.6 148-2.3.5-2.3.8-2.3 15.3 0 9.6-.6 16.9-1.5 21.1-8.2 34.7-49.5 52.3-83.8 35.7-13-6.3-22.3-16.5-27.5-30.4-2.2-5.9-2.6-8.8-3.1-24.1l-.6-17.4-12.5-2.8c-58.6-12.8-104-35.6-139.9-70.4-28.9-28-46.1-58-53.7-93.5-1.3-6.1-1.8-13-1.9-24.5v-16l3.2-6.8c8.5-18 28.8-28.9 53.8-28.9 27.1 0 48.6 12.8 55.5 32.8 1.3 3.7 2.3 10.7 2.9 19.8.7 9.8 1.8 16.8 3.6 22.9 7.6 26.2 25.3 46.7 56.4 65.5 10.4 6.3 30.1 16.2 32.1 16.2.7 0 1-39.2 1-122.3v-122.2l-17.7-5.9c-107.2-35.4-166.6-79.4-185.7-137.7-14.5-44.4-4.7-96.8 25.7-137.5 20.8-27.8 49.7-50.5 88.2-69.4 26.1-12.8 54.4-22.7 81.8-28.5l7.7-1.7v-14.7c0-17.1 1.4-24.3 6.6-34.2 6.7-12.7 21.3-23.7 36.1-27.3 7.8-1.9 22.3-1.9 30.2-.1z"/><path d="M566.8 768.3c-43.6 22.4-65.6 44.9-74.9 76.8-3 10.6-3.8 33.4-1.5 44.9 5.1 25.1 21.2 45.3 50.1 63 6.4 4 39.7 21 41 21 .3 0 .5-47.7.5-106 0-90.3-.2-106-1.4-106-.8 0-7 2.8-13.8 6.3zM555 868c0 34.6-.3 63-.6 63-.4 0-4.3-2.6-8.7-5.8-11.1-8-20-17.9-24.7-27.7-5.2-10.8-6.4-17-5.8-29.6.8-16.3 6.4-29.7 18.6-44.5 4.8-5.9 18.7-18.3 20.5-18.4.4 0 .7 28.3.7 63zm143 326.9V1302l2.4-.9c1.3-.5 7.2-3.4 13.2-6.4 43.5-22 66.9-46.2 75.5-78.2 3-11.1 3.3-36.6.5-47-7.8-29.4-28.8-50.6-71.3-72.2-8.7-4.5-16.8-8.4-18-8.8l-2.3-.6v107zm33.8-60c12 8.1 22.1 19 27.5 29.6 8.2 16.4 8.3 36.7.2 55.1-5.1 11.6-16.9 25.9-28.7 35.1l-5.8 4.4v-64c0-35.3.2-64.1.6-64.1.3 0 3.1 1.7 6.2 3.9z"/></g></svg>