<!-- Generated by IcoMoon.io -->
<svg version="1.1" xmlns="http://www.w3.org/2000/svg" width="26" height="32" viewBox="0 0 26 32">
<title>tel</title>
<path fill="#ff6b08" d="M3.725 0.503c-0.412 0.019-0.817 0.195-1.113 0.521l-2.076 2.283c0.003-0.007-0.008-0.006-0.067 0.077-0.030 0.041-0.054 0.087-0.071 0.138l-0.001 0.004c-0.846 2.69-0.279 5.651 1.101 8.466s3.58 5.51 6.106 7.721c2.526 2.212 5.377 3.941 8.096 4.799s5.353 0.847 7.305-0.571c0.023-0.016 0.043-0.033 0.061-0.051l-0 0c0.050-0.051 0.052-0.058 0.044-0.049l0.008-0.010 2.066-2.273c0.258-0.285 0.416-0.665 0.416-1.082 0-0.47-0.201-0.893-0.521-1.189l-4.903-4.458c-0.285-0.258-0.665-0.416-1.082-0.416-0.47 0-0.893 0.201-1.189 0.521l-2.218 2.439c-1.8-0.522-3.339-1.405-4.819-2.751s-2.506-2.796-3.195-4.538l2.216-2.438c0.259-0.285 0.417-0.666 0.417-1.083 0-0.47-0.201-0.893-0.521-1.189l-4.902-4.458c-0.284-0.258-0.662-0.416-1.078-0.416-0.028 0-0.056 0.001-0.084 0.002l0.004-0zM3.774 1.504c0.007-0 0.015-0 0.023-0 0.158 0 0.302 0.061 0.409 0.161l4.899 4.456c0.124 0.109 0.202 0.267 0.202 0.444 0 0.157-0.061 0.299-0.161 0.405l0-0-2.451 2.693c-0.081 0.089-0.131 0.208-0.131 0.338 0 0.062 0.011 0.122 0.032 0.177l-0.001-0.003c0.744 2.029 1.944 3.694 3.595 5.196s3.42 2.539 5.51 3.087c0.039 0.011 0.083 0.017 0.13 0.017 0.147 0 0.279-0.063 0.371-0.164l0-0 2.451-2.694c0.108-0.123 0.267-0.201 0.443-0.201 0.157 0 0.3 0.061 0.405 0.162l-0-0 4.902 4.457c0.252 0.23 0.269 0.596 0.039 0.848l-2.048 2.253c-1.602 1.151-3.861 1.215-6.389 0.416-2.538-0.8-5.294-2.461-7.733-4.595s-4.561-4.741-5.866-7.403c-1.291-2.636-1.759-5.3-1.049-7.648l2.001-2.199c0.103-0.116 0.25-0.192 0.414-0.201l0.002-0z"></path>
</svg>
