<svg xmlns="http://www.w3.org/2000/svg" viewBox="0 0 15 22"><path d="M6.121.082c-1.117.89-1.559 2.84-1.226 5.438.054.421.148.796.335 1.359.235.7.282 1.035.258 1.863-.015.785-.062 1.11-.297 1.992-.199.774-.246.903-.363 1.032-.113.132-.223.132-.363.004-.152-.133-.18-.223-.215-.704-.04-.48-.11-.812-.27-1.21-.347-.88-1.164-1.727-2.101-2.196-.36-.18-.524-.191-.649-.05-.101.1-.105.19-.015.546.055.227.023 1.5-.055 2.106-.078.613-.23 1.355-.426 2.078a15.183 15.183 0 00-.484 2.777c-.055.637-.043 1.688.02 2.078.171 1.055.597 1.957 1.265 2.696.985 1.093 2.332 1.77 4.05 2.039.61.093 2.228.101 2.868.011a10.101 10.101 0 003.387-1.078c1.578-.82 2.426-1.726 2.875-3.093.21-.637.258-.942.273-1.84.028-1.172-.093-1.996-.468-3.223-.364-1.172-.625-1.738-1.137-2.484-.465-.672-.707-1.223-.945-2.125a18.724 18.724 0 01-.372-1.88 1.938 1.938 0 00-.074-.39c-.043-.09-.222-.168-.336-.144-.226.043-.629.742-.77 1.351-.073.297-.081.438-.077 1.024.004.77.046 1.07.296 1.953.25.87.27 1.035.266 1.879 0 .867-.043 1.109-.289 1.632-.273.59-.5.723-.762.446-.343-.375-.504-1.672-.386-3.274.074-1.054.058-1.558-.059-2.105-.27-1.242-.828-2.418-1.758-3.668a8.657 8.657 0 01-.453-.664c-.473-.832-.828-2.23-.945-3.707C6.684.082 6.633 0 6.395 0c-.122 0-.204.023-.274.082zm-3.484 12.27c.093.117.093.109 0 .941-.075.64-.086.691-.176.785-.148.164-.379.129-.477-.078-.046-.098-.046-.176.036-.84.085-.73.085-.738.199-.844.136-.132.289-.12.418.036zm-.32 2.773l.101.105-.016.883c-.007.489-.027.918-.047.957-.015.035-.085.09-.156.114-.097.035-.14.03-.23-.02a.346.346 0 01-.14-.125c-.056-.102-.075-.781-.048-1.332.028-.488.032-.508.121-.594.137-.125.29-.12.414.012zm9.785-12.141c-.188.211-.418.84-.43 1.176-.008.133.012.184.09.266.133.144.324.14.437-.004a.369.369 0 00.086-.172c0-.137.18-.668.27-.797.18-.262.062-.57-.227-.57a.266.266 0 00-.226.101zM.152 4.855c-.191.082-.207.372-.027.61.066.094.176.32.234.5.121.363.223.484.391.484.121 0 .27-.12.3-.242C1.106 5.98.77 5.18.532 4.949c-.136-.133-.23-.156-.379-.094zm0 0" id="surface1" fill="#ff6b08"/></svg>